<?xml version="1.0" encoding="utf-8"?>
<svg xmlns="http://www.w3.org/2000/svg" viewBox="0 0 500 500">
  <path d="M 438.388 232.974 L 267.436 66.098 C 257.587 56.484 241.619 56.484 231.774 66.098 L 196.275 100.757 L 241.308 144.711 C 252.105 141.128 264.053 143.845 272.116 151.718 C 280.222 159.646 282.986 171.396 279.231 181.979 L 322.623 224.349 C 333.126 220.816 345.239 223.102 353.623 231.301 C 365.345 242.735 365.345 261.285 353.623 272.721 C 337.299 288.674 309.41 281.393 303.416 259.613 C 301.707 253.401 302.148 246.809 304.653 240.86 L 264.186 201.351 L 264.181 305.326 C 267.114 306.743 269.792 308.614 272.116 310.865 C 283.837 322.304 283.837 340.853 272.116 352.294 C 260.391 363.737 241.392 363.737 229.686 352.294 C 214.527 337.505 219.681 312.417 239.506 304.478 L 239.506 199.536 C 235.829 198.067 232.485 195.896 229.686 193.142 C 220.808 184.483 218.672 171.765 223.223 161.121 L 178.833 117.779 L 61.617 232.198 C 51.767 241.814 51.767 257.407 61.617 267.022 L 232.57 433.905 C 242.418 443.516 258.38 443.516 268.229 433.905 L 438.388 267.803 C 448.232 258.183 448.232 242.594 438.388 232.974" fill="#DE4C36" style="stroke-width: 1;"/>
</svg>